<?xml version="1.0" encoding="UTF-8"?>
<svg id="Calque_20" data-name="Calque 20" xmlns="http://www.w3.org/2000/svg" viewBox="0 0 139.46 181.98">
  <rect x="44.09" y="66.59" width="86.79" height="114.41" fill="#6904d4"/>
  <rect x="48.63" y="131.43" width="77.9" height="14.26" rx="5.09" ry="5.09" fill="#26006f"/>
  <rect x="48.63" y="103.66" width="77.9" height="14.26" rx="5.09" ry="5.09" fill="#26006f"/>
  <rect x="48.63" y="75.71" width="77.9" height="14.26" rx="5.09" ry="5.09" fill="#26006f"/>
  <rect x="48.63" y="159.68" width="77.9" height="14.26" rx="5.09" ry="5.09" fill="#26006f"/>
  <polygon points="44.22 60.67 44.21 66.59 44.09 181 1.89 181 1.89 41.77 23.53 41.77 44.21 60.66 44.22 60.67" fill="#26006f"/>
  <polygon points="105.29 65.37 105.29 66.59 44.21 66.59 44.22 60.67 44.21 60.66 44.21 60.65 23.58 41.73 1.89 41.77 1.89 37.09 25.37 37.09 44.31 54.16 44.3 56.07 73.32 56.07 105.29 65.37" fill="#ffbf02"/>
  <polygon points="44.22 60.67 44.21 66.59 44.21 60.66 44.22 60.67" fill="#ffbf02"/>
  <polygon points="105.41 65.4 105.41 66.62 44.21 66.59 105.29 66.59 105.29 65.37 105.41 65.4" fill="#ffbf02"/>
  <polygon points="105.41 65.4 105.41 66.59 105.29 66.59 105.29 65.37 105.41 65.4" fill="#26006f"/>
  <rect x="51.04" y="22.2" width="14.43" height="13.95" rx="4.98" ry="4.98" fill="#26006f"/>
  <rect x="6.9" y="77.62" width="30.82" height="42.25" rx="8.5" ry="8.5" fill="#ffbf02"/>
  <rect x="6.9" y="55.43" width="26.11" height="13.95" rx="4.98" ry="4.98" fill="#6904d4"/>
  <rect x="51.04" y="22.2" width="14.43" height="13.95" rx="4.98" ry="4.98" fill="#6904d4"/>
  <rect x="130.7" y="66.59" width=".18" height="71.45" fill="#26006f"/>
  <rect x="7.63" y="131.61" width="30.82" height="42.25" rx="8.5" ry="8.5" fill="#ffbf02"/>
  <polygon points="98.42 7.05 86.62 9.01 86.04 4.54 97.74 4.44 98.42 7.05" fill="#fbc702"/>
  <path d="M132.76,48.45h-1.88v-6.65h.01v-9.46c0-7.83-6.34-14.17-14.17-14.17h-29.34v-2.46l40.11-11.08-.19-1.76h-3.67l-25.21,4.18-11.8,1.96-.58-4.47-.21-1.67h-12.95l-24.85,3.13-2.38,12.17v9.46c0,7.82,6.34,14.17,14.17,14.17h24.12c-.13-.54-.2-1.1-.2-1.68v-5.84c0-4.02,3.26-7.28,7.28-7.28h17.35c4.02,0,7.28,3.26,7.28,7.28v5.84c0,.58-.07,1.14-.2,1.68-.75,3.21-3.64,5.6-7.08,5.6h-3.08v17.97l.12.03v1.19h25.47v71.45h1.88c2.83,0,5.14-2.3,5.14-5.14V53.59c0-2.84-2.31-5.14-5.14-5.14ZM65.47,31.17c0,2.75-2.23,4.98-4.98,4.98h-4.47c-2.75,0-4.98-2.23-4.98-4.98v-3.99c0-2.75,2.23-4.98,4.98-4.98h4.47c2.75,0,4.98,2.23,4.98,4.98v3.99Z" fill="#26006f"/>
  <path d="M115.65,34.28v5.84c0,.58-.07,1.14-.2,1.68-.75,3.21-3.64,5.6-7.08,5.6h-17.35c-3.44,0-6.33-2.39-7.08-5.6-.13-.54-.2-1.1-.2-1.68v-5.84c0-4.02,3.26-7.28,7.28-7.28h17.35c4.02,0,7.28,3.26,7.28,7.28Z" fill="#ffbf02" stroke="#6904d4" stroke-miterlimit="10" stroke-width="4"/>
</svg>